HIERARCHY
ROOT HipCenter
{
    OFFSET 0.0 0.0 -0.0
    CHANNELS 6 Xposition Yposition Zposition Zrotation Xrotation Yrotation
    JOINT Spine
    {
        OFFSET 0.0 0.12093855440616608 0.0
        CHANNELS 3 Zrotation Xrotation Yrotation
        JOINT ShoulderCenter
        {
            OFFSET 0.0 0.3338455855846405 0.0
            CHANNELS 3 Zrotation Xrotation Yrotation
            JOINT LeftShoulder
            {
                OFFSET 0.19127574563026428 0.0 0.0
                CHANNELS 3 Zrotation Xrotation Yrotation
                JOINT LeftElbow
                {
                    OFFSET 0.29749929904937744 0.0 0.0
                    CHANNELS 3 Zrotation Xrotation Yrotation
                    JOINT LeftWrist
                    {
                        OFFSET 0.29608583450317383 0.0 0.0
                        CHANNELS 3 Zrotation Xrotation Yrotation
                        JOINT LeftHand
                        {
                            OFFSET 0.04401729255914688 0.0 0.0
                            CHANNELS 3 Zrotation Xrotation Yrotation
                            End Site
                            {
                                OFFSET 0.017606915906071663 0.0 0.0
                            }
                        }
                    }
                }
            }
            JOINT RightShoulder
            {
                OFFSET -0.19127574563026428 0.0 0.0
                CHANNELS 3 Zrotation Xrotation Yrotation
                JOINT RightElbow
                {
                    OFFSET -0.29749929904937744 0.0 0.0
                    CHANNELS 3 Zrotation Xrotation Yrotation
                    JOINT RightWrist
                    {
                        OFFSET -0.29608583450317383 0.0 0.0
                        CHANNELS 3 Zrotation Xrotation Yrotation
                        JOINT RightHand
                        {
                            OFFSET -0.04401729255914688 0.0 0.0
                            CHANNELS 3 Zrotation Xrotation Yrotation
                            End Site
                            {
                                OFFSET -0.017606915906071663 0.0 0.0
                            }
                        }
                    }
                }
            }
            End Site
            {
                OFFSET 0.0 0.13353824615478516 0.0
            }
        }
    }
    JOINT LeftHip
    {
        OFFSET 0.13976645469665527 0.0 0.0
        CHANNELS 3 Zrotation Xrotation Yrotation
        JOINT LeftKnee
        {
            OFFSET 0.0 -0.40649038553237915 0.0
            CHANNELS 3 Zrotation Xrotation Yrotation
            JOINT LeftAnkle
            {
                OFFSET 0.0 -0.4477466940879822 0.0
                CHANNELS 3 Zrotation Xrotation Yrotation
                JOINT LeftFoot
                {
                    OFFSET 0.0 -0.1007077619433403 0.0
                    CHANNELS 3 Zrotation Xrotation Yrotation
                    End Site
                    {
                        OFFSET 0.0 0.0 0.04028310999274254
                    }
                }
            }
        }
    }
    JOINT RightHip
    {
        OFFSET -0.13976645469665527 0.0 0.0
        CHANNELS 3 Zrotation Xrotation Yrotation
        JOINT RightKnee
        {
            OFFSET 0.0 -0.40649038553237915 0.0
            CHANNELS 3 Zrotation Xrotation Yrotation
            JOINT RightAnkle
            {
                OFFSET 0.0 -0.4477466940879822 0.0
                CHANNELS 3 Zrotation Xrotation Yrotation
                JOINT RightFoot
                {
                    OFFSET 0.0 -0.1007077619433403 0.0
                    CHANNELS 3 Zrotation Xrotation Yrotation
                    End Site
                    {
                        OFFSET 0.0 0.0 0.04028310999274254
                    }
                }
            }
        }
    }
}
MOTION
Frames: 5
Frame Time: 0.03333333333333333
0.6790000200271606 -0.017999999225139618 0.24899999797344208 177.93617583606311 -22.935585559862616 179.3606908773682 -0.7097682201464013 -12.440222370782188 0.8194106764924072 6.5312183530170445e-09 3.730535788392e-07 3.395446824860298 97.78861515184892 29.071012728136438 -81.88574756960193 2.556646102377571e-06 4.337132840405292e-06 81.21784420036676 -4.030222106182576e-06 -29.79957263628194 84.97138734357765 -3.1805546814635168e-15 0.0 0.0 -88.31564861842587 39.9162083555067 75.85323714831246 3.0147275686203307e-06 1.6676178682815147e-06 -73.85593162790042 -179.99999773432447 -73.42366497230134 109.77825901043461 -1.4660369234870894e-15 -6.361109362927032e-15 -5.466578358765419e-16 6.429563577243319 18.05420019020932 -59.070864822453565 -16.708357537102824 8.000629415533114 -4.232425907642348 86.48848791297759 -21.7039921617705 140.53968942695434 -1.5902773407317582e-15 8.827812596100317e-32 -6.361109362927033e-15 -11.360172431145513 22.109501539181135 56.06005490356218 12.71651138669163 7.854848115128352 3.8719115142827567 -77.40982864016088 -13.857180486584634 -135.04703554701533 -1.5902773407317584e-15 7.951386703658792e-16 1.1034765745125397e-32
0.6819999814033508 0.03099999949336052 0.28600001335144043 178.3940176713738 -28.45075261782564 -179.97417955575298 -0.5676946727896338 -15.996906783530676 0.9662438757273205 -1.7324762692699082e-08 4.712812856418187e-07 2.8954523525630766 96.60396218741484 31.582338917418646 -72.12082556955474 4.8780474377007e-07 -1.2799451143787434e-06 69.63616423890707 1.5540818305272471e-06 -30.74828338670977 81.61290897875507 3.1805546814635168e-15 -6.3611093629270335e-15 1.7655625192200634e-31 -85.67243448603384 39.503949445735415 65.89872142759272 1.704199851921395e-06 -4.464868135939914e-06 -63.021896979420276 179.99998651526877 -75.93630954835118 113.12459643103337 2.0872390097104326e-15 6.361109362927033e-15 -4.472655020808071e-16 12.892045162515785 26.389868606356327 -68.9440754636073 -31.894337937609517 9.0630126110794 -1.8770821150069419 84.13017953070418 -18.26728762853726 107.76385015705858 1.490885006936024e-16 1.9878466759146985e-16 -2.586273221513765e-34 -15.856809895484323 31.196300126202782 63.292549818466114 28.031646367432963 11.359250840033237 1.8274172012840253 -74.5909370599259 -9.77921991613325 -56.60344543267971 -1.5902773407317584e-15 -3.975693351829396e-15 -5.517382872562698e-32
0.6850000023841858 0.07400000095367432 0.3449999988079071 178.19124815717348 -37.902872959761496 179.19356887688323 -0.8059228181066412 -19.20478393779099 1.7459554772707964 -2.8395659804763984e-09 2.5987719824339505e-06 1.876494890396014 92.2352457414264 36.12627866054288 -56.3977985411991 1.49878238256339e-06 -3.966935723317738e-06 55.67587187402141 2.5519807941137996e-06 -32.89870312536221 76.97439971821699 1.5902773407317584e-15 3.1805546814635168e-15 -3.1805546814635168e-15 -79.4659219625842 38.788698687036515 48.352197845189856 -2.5708145122813485e-06 -1.3748643978454457e-06 -47.151489896141214 -179.99999882846535 -80.43705756668203 118.99556857750424 4.07508568562513e-15 -1.2424041724466926e-17 -1.863606258670029e-15 18.20738038610043 31.38553880302767 -78.88314240867741 -44.48576790364721 6.489408323894778 0.23383286107811566 79.86246426162586 -14.377328645493044 48.9714727527202 0.0 -2.4848083448933722e-17 0.0 -20.44144103964647 35.90417868810973 67.55813504971182 42.199537478299135 14.49249697396494 -1.6407842685557692 -73.84392559926887 -10.46648495503571 -23.704283385072728 -3.180554681463516e-15 -1.7655625192200634e-31 6.361109362927032e-15
0.6890000104904175 0.0989999994635582 0.4230000078678131 177.76880989570355 -50.35535519361421 178.15680045283113 -0.8183756148479803 -21.65728804169119 2.91323246257137 5.4428676200134006e-08 -8.884881570147053e-07 -0.30582973059721996 84.78943296172865 42.08794150803512 -38.12862080809811 -7.696480224579902e-07 3.556794262335503e-06 44.82098524036117 -4.5826926859767194e-06 -37.72776551021936 68.87214613197384 0.0 0.0 -3.1805546814635168e-15 -73.01599822256478 40.319885940028264 29.802302262852855 1.3072625210939451e-06 2.9264417817946553e-06 -34.65594480480492 -179.99999230166938 -74.87417928026684 118.48047551375377 -3.776908684237926e-15 -6.212020862233503e-18 2.1617832600572342e-15 22.081797301029834 32.601428623598856 -87.85836799802695 -55.583615679557504 2.642216499761931 0.6098364196883482 78.95706814679059 -10.796745730870239 22.78929780839188 -3.1805546814635176e-15 -1.5902773407317588e-15 -4.4139062980501586e-32 -23.074010764075915 37.25579198565133 67.61373222174929 54.346849357261256 18.892602943082505 -6.430609072561388 -74.95209188780413 -12.27648151083105 -18.020358181619248 3.531125038440127e-31 -6.361109362927035e-15 6.361109362927035e-15
0.6930000185966492 0.0989999994635582 0.5120000243186951 176.69811015939524 -64.4588453173636 175.65421535297696 -0.8313892824919398 -23.43431153426097 3.087467737291057 -3.5433793971764784e-08 -3.400890836937595e-06 -0.7897387270361643 77.63063307785882 46.92497018289111 -24.306292736295568 2.6844320613753176e-06 -8.557759652027484e-07 43.51881365698733 1.6302497571335793e-06 -46.524030990320796 57.42376435330667 7.951386703658792e-16 0.0 0.0 -65.01684440771913 48.499941581352914 14.834755671955449 -5.521603790276455e-06 7.803906709707603e-07 -31.836245304301915 -179.99999988767803 -63.55751123588287 123.15077519179967 -3.9756933518293955e-16 6.5598940305185035e-15 -7.951386703658792e-16 22.691193453099498 32.518560195783245 -87.59694883576971 -63.598073779449656 3.5564504264489085 1.4442737398489247 77.83179034440923 -13.714867737692696 19.203790247760857 -6.3611093629270335e-15 3.531125038440127e-31 -6.3611093629270335e-15 -25.432464555398287 36.63830732924962 70.70082616944264 64.23258227156994 19.496198978618025 -10.49640479605707 -75.19225656906478 -14.197582693814837 -15.21916438609413 0.0 1.5902773407317584e-15 0.0
